<svg width="960" height="540" viewBox="0 0 960 540" fill="none" xmlns="http://www.w3.org/2000/svg">
<rect width="960" height="540" fill="#CAD1DB"/>
<path d="M306.647 232H325.212L337.983 178.148C339.432 170.643 341.143 163.402 342.592 156.028H343.118C344.435 163.402 345.883 170.643 347.595 178.148L360.498 232H379.458L398.55 135.093H383.935L374.718 185.522C373.138 195.792 371.427 206.193 369.847 216.727H369.188C366.818 206.193 364.843 195.66 362.473 185.522L349.965 135.093H336.403L324.027 185.522C321.788 195.792 319.55 206.193 317.443 216.727H316.917C315.205 206.193 313.493 195.792 311.65 185.522L302.697 135.093H286.897L306.647 232ZM442.073 233.843C459.98 233.843 476.175 219.887 476.175 195.923C476.175 171.697 459.98 157.74 442.073 157.74C424.035 157.74 407.971 171.697 407.971 195.923C407.971 219.887 424.035 233.843 442.073 233.843ZM442.073 221.335C430.618 221.335 423.64 211.197 423.64 195.923C423.64 180.518 430.618 170.38 442.073 170.38C453.396 170.38 460.638 180.518 460.638 195.923C460.638 211.197 453.396 221.335 442.073 221.335ZM493.981 232H509.254V186.97C513.731 175.515 520.841 171.302 526.634 171.302C529.662 171.302 531.506 171.697 534.007 172.487L536.641 159.32C534.402 158.267 532.164 157.74 528.609 157.74C520.841 157.74 513.204 163.27 508.069 172.618H507.674L506.357 159.583H493.981V232ZM547.856 232H562.866V213.303L574.848 199.215L594.466 232H611.056L583.801 189.077L608.291 159.583H591.438L563.393 194.607H562.866V127.193H547.856V232ZM643.34 233.843C661.115 233.843 670.727 223.968 670.727 211.723C670.727 198.162 659.667 193.553 649.528 189.735C641.497 186.838 634.518 184.468 634.518 178.28C634.518 173.277 638.205 169.327 646.237 169.327C652.162 169.327 657.297 172.092 662.3 175.647L669.41 166.298C663.617 161.69 655.585 157.74 645.973 157.74C629.778 157.74 620.035 166.825 620.035 178.938C620.035 191.315 630.7 196.45 640.443 200.137C648.212 203.033 656.375 206.062 656.375 212.513C656.375 218.043 652.293 222.257 643.735 222.257C635.835 222.257 629.647 218.965 623.195 213.962L616.085 223.837C623.063 229.63 633.333 233.843 643.34 233.843Z" fill="black"/>
</svg>
