<svg fill="none" height="560" viewBox="0 0 560 560" width="560" xmlns="http://www.w3.org/2000/svg" xmlns:xlink="http://www.w3.org/1999/xlink"><clipPath id="a"><path d="m0 0h560v560h-560z"/></clipPath><g clip-path="url(#a)"><path d="m507.848 461.427h6c-16 21.421-45.5 65.421-56 78.5-1.503 1.871-4.834 9-8 12.5l-47.5-54-1.5-3.5c1.833-2.167 6.8-8.1 12-14.5 6.222-7.658 40.848-60.671 40.291-63h-.291c.171-.107.266-.104.291 0h16.209v32.5h34.5z" fill="#c1d8f5"/><path d="m494.848 348.347c-11.696 14.619-18 28-38 57.5l-6.5 12h16.5v32.5h34.5l4 11.5h8c9-8 39-56.083 44.5-68 6-13 3-41.999-11.5-53-13.597-10.314-39.5-7.499-51.5 7.5z" fill="#dbd6d5"/><path d="m220.348 540.348h9.5v85c-3 .833-9.431 2.186-11 2.5-4.5.899-35.116 28.223-50 44h-6v-38l-52-1 2.183-33.5c.611-.508 1.217-1.008 1.817-1.5 25-20.5 85.5-57.5 105.5-57.5z" fill="#c1d8f5"/><path d="m385.348 506.348 24-25c16.166 20.833 49.4 64 53 70l-14.5 19c-1.334 1.333-5.3 4-10.5 4 9 10 28.3 32.2 33.5 41-6 13-72 75.5-88.5 83.5s-77 6-88 3.5-71.5-24.5-90.5-30c.8-4.4 14-29.167 20.5-41-.834-1-3-3-5-3-2.5 0 0-75 0-90l41.5 5c3 36-2 75.5-2 75.5l31 9.5 1.5 47.5 33.5-32.5 36.5 39 11-51 32.5 20v-47l32.5-30c-19.5-10.5-47-36.5-52-68z" fill="#c7c7b8"/><path d="m391.348 165.348c4.5-16 43.5-59.5 65-35.5 17.2 19.2.833 48-9.5 60 16.5-3 73-3.5 81 21.5 6.4 20-10 49.5-68 72.5z" fill="#b8b7af"/><path d="m262.848-37.1523c28.5-9.5 62 63.5 71.5 86.5 9.833 19.5 33.1 66.7003 47.5 99.5003 18 41 47.5 47.5 70.5 108.5s19 182.5-45 226c-13.239 8.998-100.5 42-182.5 54.5s-165.5002-71-184.0002-144.5 9.375-142.5 7.5-157.5c-1-8-7.9998-20.5-26.9998-58-18.99995-37.5-34.0001-84.5003-5.5001-106.5003s75.502 29.8733 92.5001 46.0003c19.5 18.5 37.077 40.5 48.5 45 24.5 9.651 62.5-13 68-16.5s5.5-18 5-71.0003c-.5-53 4.5-102.5 33-112z" fill="#c1d8f5"/><path d="m40.8478 393.348c5.9505 23.641 18.6258 48.317 35.813 70.5 36.6872-19 337.1872-121 388.3592-135-.842-26.958-5.412-52.244-12.672-71.5-11.835-31.389-25.391-48.347-38.216-63-10.716 29.771-63.284 78-82.284 92.5s-37 4-44-6-57-109.5-68.054-132c-10.528 5.932-33.648 17.295-52.946 15.728 6.833 46.757 21.1 145.372 23.5 165.772 3 25.5-12.5 28-23.5 27s-107.0001-30-131.7438-36c-1.4902 22.142-.5975 46.807 5.7436 72z" fill="#dbd6d5"/><path d="m250.348 528.848-31 9.5 41.5 5c3 36-2 75.5-2 75.5l31 9.5 1.5 47.5 33.5-32.5 36.5 39 11-51 32.5 20v-47l32.5-30c-19.5-10.5-47-36.5-52-68l24-25-33 16-17-14.5-29 23.5-34-9v20h-44.5z" fill="#fdf9b7"/><path d="m311.348 571.348c6.166-6.167 19.9-20.7 25.5-29.5 5 5 14.5 34 18.5 48.5-6.4 0-32-12.667-44-19z" fill="#fff"/><path d="m121.348 148.848c-19-26.5-46.0002-38-59.5003-31.5s1.5 62 7 69.5 19 4 22-5.5 9-15.5 23.0003-12.5c11.2 2.4 26.5 6.5 7.5-20z" fill="#777079"/><path d="m238.348 112.848c-.5-20.5003 11.432-79.0003 28-79.0003 23-.0001 35.875 59 37 72.5003 2 24-13.835 13.076-20 6.5-7.5-8-21-12-29.5 0s-15.097 16.5-15.5 0z" fill="#777079"/><g fill="#170a0a"><circle cx="149.848" cy="394.348" r="19"/><circle cx="374.848" cy="320.348" r="19"/><path d="m394.848 394.348c12.749-8.5 3.5-18.673-7-11-13 9.5-58.991 29.138-105 44.999-39.748 13.703-85.751 26.134-117.5 31-12 1.84-10 14.63 2 13 40.5-5.5 89.5-20.5 119-30s95.75-39.499 108.5-47.999z"/></g></g></svg>