<svg fill="none" height="155" viewBox="0 0 308 155" width="308" xmlns="http://www.w3.org/2000/svg"><path d="m48 6c0-3.31371 2.6863-6 6-6h200c3.314 0 6 2.68629 6 6v26c0 1.1046-.895 2-2 2h-208c-1.1046 0-2-.8954-2-2z" fill="#64787a"/><rect fill="#313b3c" height="127" rx="6" width="212" x="48" y="28"/><path d="m0 24c0-13.2548 10.7452-24 24-24h24v145h-24c-13.2548 0-24-10.745-24-24z" fill="#00bde3"/><path d="m308 24c0-13.2548-10.745-24-24-24h-24v145h24c13.255 0 24-10.745 24-24z" fill="#ff4536"/><g fill="#2f3e47"><circle cx="26" cy="43" r="12"/><circle cx="284" cy="113" r="12"/><circle cx="26" cy="93" r="6"/><circle cx="284" cy="37" r="6"/><circle cx="14" cy="105" r="6"/><circle cx="272" cy="49" r="6"/><circle cx="38" cy="105" r="6"/><circle cx="296" cy="49" r="6"/><circle cx="26" cy="117" r="6"/><circle cx="284" cy="61" r="6"/><path d="m32 15h10v3h-10z"/><path d="m271.5 18v3.5h3v-3.5h3.5v-3h-3.5v-3.5h-3v3.5h-3.5v3z"/></g></svg>