<svg fill="none" height="121" viewBox="0 0 148 121" width="148" xmlns="http://www.w3.org/2000/svg"><path d="m141 77-51 31h-89v13h89l51-31z" fill="#33332b"/><path d="m1 108 50.5-30.5 89.5-.5-51 31z" fill="#1e1e1e"/><path d="m18 1 66.4999-.5 63.0001 11-14.5 82.5h-50.5001l17-79z" fill="#1e1e1e"/><path d="m18 1h25.4972l72.9998 12-15.497 81h-18l16.9971-79z" fill="#33332b"/><path d="m17.9996.999929 81.991 13.998571-16.9906 79.0015-82.000001-15z" fill="#1e1e1e"/><path d="m23.2312 8.05905 67.6741 11.56725-11.517 53.7287-67.712-12.2538z" fill="#6f6b6c"/><g fill="#fff"><path d="m17.161 67.0961 13.0007 2.4998-2 7-13.0006-2.9997z"/><path d="m38.947 51.1115 12.8796 2.3003-.9552 2.2421-12.9489-2.4759z"/><path d="m39 27 2.1236.7076-2.6853 11.8968-2.437-.6043z"/><path d="m60.8006 31.0182 2.3192.8459-2.6198 11.6359-2.4997-.9999z"/><path d="m37.5977 71.0044 13.2851 2.9956-1.5 6.5-13.3415-2.4902z"/><path d="m57.5977 75.0044 13.2851 2.4956-1.5 7-13.3415-2.4902z"/><ellipse cx="124" cy="51.9999" rx="12" ry="13" transform="matrix(.98768834 .15643447 -.15643447 .98768834 9.661222 -18.757669)"/></g></svg>