<svg fill="none" height="662" viewBox="0 0 581 662" width="581" xmlns="http://www.w3.org/2000/svg"><path d="m437.554 451.859c-1.5 9-4 16.5-4 24.5s1 24 4 28 20 16 24.5 16.5c-6 1.6-6.833 3.333-6.5 4l-2 57c0 3.5 10 7.5 14 7.5s18.5-3.5 21-11.5 9.5-16.5 16.5-16 21.5 19 21.5 32-3 35-6 38-24 3-28 0-4-3.5-7-2.5-21 14.5-25.5 16-46.5 6.5-54.5 5-30.5-5-35-8.5-12-10.5-14-13.5-7 11.5-12.5 12.5-29 4-33 0-11.5-15.5-13.5-27 1-67.5 3.5-73c2-4.4 4.167-14.833 5-19.5-2.4 0-6.666-2-8.5-3-2-5 14-47.5 21-53 5.6-4.4 6.667-4.167 6.5-3.5l68.5 1 29-6.5z" fill="#c7c7b8"/><path d="m453.554 581.859c0 3.5 10 7.5 14 7.5l-7.5 56c-4.5 1.5-46.5 6.5-54.5 5s-30.5-5-35-8.5-12-10.5-14-13.5-7 11.5-12.5 12.5-29 4-33 0-11.5-15.5-13.5-27c-1.26-7.249-.534-32.182.801-51 17.199 3.5 45.199 31 48.699 37 18.5-3.5 33 1 39 1s38.646-4.894 44-6.5c5-1.5 17-6.5 23.5-12.5z" fill="#c1d8f5"/><path d="m467.554 589.359c4 0 18.5-3.5 21-11.5s9.5-16.5 16.5-16 21.5 19 21.5 32-3 35-6 38-24 3-28 0-4-3.5-7-2.5-21 14.5-25.5 16c-.694.231-2.282.546-4.5.908-1.833-2.636-5.7-9.908-6.5-17.908-1-10 2-29.5 11-40.982 2.748 1.189 5.719 1.982 7.5 1.982z" fill="#dbd6d5"/><path d="m351.554 602.859c.5 8 4 25.5 4.5 27-10 19-20.5 25-26 26s-38.5 3-43.5 4.5-17.3 2.5-18.5-.5c-2-5 2-14 7-18.5s21.5-15 32-16c11.459-1.091 36.5-20 39.5-21 2.4-.8 3.5-2 5-1.5z" fill="#b3c8e2"/><path d="m343.554 465.359c-6.5 3-26 38-27.5 53.5 5 7 20.5 16 32.5 16.5s27-2 33-3.5 21.5-7.5 21.5-13c-3-6-7.5-7-8.5-19.5s2-24 4-27.5c1.6-2.8 2-6.167 2-7.5z" fill="#fdf9b7"/><path d="m450.054 443.359c15 .5 72.164 23.077 89 31 17 8 43.5 14 41.5 46.5s-38 30.5-55 25-75-29.5-78.5-31.5c-2.8-1.6-24.166-22-34.5-32l-17.5-19z" fill="#c1d8f5"/><path d="m539.054 474.359c17 8 43.5 14 41.5 46.5s-38 30.5-55 25c-5.812-1.881-16.418-5.924-28-10.511l-7.5-19.489 26-12.5-2.5-29 11-6.309c6.03 2.5 11.092 4.705 14.5 6.309z" fill="#dbd6d5"/><path d="m527.054 493.359c-.5-19.5 10.5-47 14.5-49s11.3 21.5 12 28.5.5 12 .5 15.5c-5 3.5-13.5 6.5-27 5z" fill="#fffffe"/><path d="m197.056 277.359-2 20.5c-12 0-28-1.5-47.5 4.5s-31.5 14-43.5 36.5c-11.9996 22.5-15.9996 53-31.4996 63s-30.502 12-44 7.5c-7.8945-2.632-29.8143-29.5-28.4997449-52.5 1.4288649-25 17.4999449-47.5 32.9999449-65.5s37.0004-31.5 54-36c16.9994-4.5 51.5004-6.5 67.5004-1.5 17.997 5.624 34.497 14.5 42.499 23.5z" fill="#b8b7af"/><path d="m335.052 3.35897c25 0 51.5 63.50003 64.5 89.50003l.06.1192c7.181 14.3618 27.971 55.9428 38.442 69.8808 10.5 13.977 32.394 40 44 50.5 13.817 12.5 31.498 67.5 31.498 97 0 22.5.5 76.5-29.5 109.5s-77.5 49.5-107 50-80-5-102.5-19-51.997-47-65-70c-13.002-23-21-50-19-80s16.002-80 38.002-99.5c6-14 1.498-97-1.002-112s-13.5-68 11.5-84.00003c25-15.99997 42.5 7.50003 47.5 22.50003 4 12 11.334 37 14.5 48 0-13.5 9-72.50003 34-72.50003z" fill="#c1d8f5"/><path d="m209.552 380.859c-13.002-23-21-50-19-80s16.002-80 38.002-99.5c10-16 46-45.5 74.5-45.5 0 30 7.5 58.5 13.5 64 13.401 12.284 56.707 20.36 79 24 24.5 4 80 8.5 105.713 6.5 7.024 20.23 12.285 43.908 12.285 60 0 9.896.097 25.884-2.347 43.5-12.651 16.5-50.651 37-62.151 41.5s-59.084 14.676-75.5 16.5c-13.5 1.5-85.051 3.261-98.5 2-15.998-1.5-36.988-6.167-48.483-8.5-6.87-8.559-12.809-17.054-17.019-24.5z" fill="#dbd6d5"/><path d="m311.554 304.359c3.5 27-24 136.5-53.5 171.5s-60.5 53-103 45-56.4999-79.5-43.5-114c13-34.5 49.051-66.057 72.5-80s101-34 127.5-22.5z" fill="#b8b7af"/></svg>